<svg xmlns="http://www.w3.org/2000/svg" version="1.0" width="1689pt" height="1689pt" viewBox="0 0 1200 1200">
    <defs>
        <linearGradient id="gradient" x1="0%" y1="0%" x2="100%" y2="0%">
            <stop offset="0%" stop-color="var(--buttonText)"/>
            <stop offset="100%" stop-color="var(--buttonText)"/>
        </linearGradient>
        <linearGradient gradientTransform="rotate(150, 0.5, 0.5)" x1="50%" y1="0%" x2="50%" y2="100%" id="ffflux-gradient">
            <stop stop-color="var(--bg2stop)" stop-opacity="1" offset="0%"></stop>
            <stop stop-color="var(--bg3stop)" stop-opacity="1" offset="100%"></stop>
        </linearGradient>
        <filter id="ffflux-filter" x="-20%" y="-20%" width="140%" height="140%" filterUnits="objectBoundingBox" primitiveUnits="userSpaceOnUse" color-interpolation-filters="sRGB">
            <feTurbulence type="fractalNoise" baseFrequency="0.003 0.004" numOctaves="2" seed="2" stitchTiles="stitch" x="0%" y="0%" width="100%" height="100%" result="turbulence"></feTurbulence>
            <feGaussianBlur stdDeviation="20 0" x="0%" y="0%" width="100%" height="100%" in="turbulence" edgeMode="duplicate" result="blur"></feGaussianBlur>
            <feBlend mode="hard-light" x="0%" y="0%" width="100%" height="100%" in="SourceGraphic" in2="blur" result="blend"></feBlend>
        </filter>
    </defs>
    <rect width="1200" height="1200" fill="url(#ffflux-gradient)" filter="url(#ffflux-filter)"></rect>
    <g transform="translate(200,1340) scale(0.0700000,-0.0700000)" fill="url(#gradient)">
        <path d="M5380 16349 c-253 -33 -477 -95 -653 -181 -43 -21 -80 -38 -83 -38 -8 0 -164 -94 -239 -144 -116 -77 -303 -243 -406 -361 -171 -195 -322 -453 -380 -649 -30 -104 -31 -111 -26 -254 2 -81 9 -160 15 -177 6 -16 21 -59 33 -95 45 -128 108 -227 211 -326 55 -54 91 -81 173 -131 106 -64 275 -108 415 -108 258 0 509 123 664 323 24 32 67 99 96 151 67 122 110 173 190 225 88 57 151 76 246 76 175 0 313 -81 394 -230 57 -103 68 -270 26 -377 -57 -145 -149 -225 -326 -283 -105 -34 -236 -95 -320 -149 -30 -19 -62 -40 -71 -46 -64 -40 -106 -77 -195 -167 -160 -164 -234 -275 -335 -503 -12 -29 -44 -130 -62 -200 -38 -148 -42 -202 -42 -640 0 -468 2 -493 61 -657 96 -267 337 -485 629 -569 69 -20 102 -23 245 -23 151 0 172 3 252 28 89 28 205 81 268 123 120 82 245 226 309 358 18 39 37 78 42 87 4 9 17 52 29 96 18 71 20 111 20 337 0 158 4 264 10 276 6 10 43 35 83 55 131 67 312 185 397 260 14 12 48 42 75 66 51 45 175 172 237 243 152 176 297 428 393 684 15 40 31 87 36 105 4 17 19 76 33 131 44 170 33 385 -26 505 -42 86 -78 82 -130 -15 -11 -22 -24 -51 -29 -65 -4 -14 -22 -63 -40 -110 -17 -47 -38 -102 -45 -123 -57 -154 -175 -364 -303 -537 -88 -118 -315 -356 -386 -404 -22 -14 -67 -45 -100 -69 -68 -48 -193 -124 -245 -148 -19 -9 -65 -30 -102 -48 -37 -17 -73 -31 -79 -31 -6 0 -25 -6 -42 -14 -18 -7 -57 -21 -88 -31 -77 -25 -129 -63 -158 -114 -23 -42 -23 -47 -29 -404 -4 -313 -7 -370 -23 -420 -34 -106 -107 -184 -217 -232 -59 -26 -184 -26 -244 0 -72 31 -135 85 -175 149 l-38 61 2 415 c3 428 9 510 49 597 8 17 14 36 14 41 0 22 67 141 117 209 116 155 273 268 463 332 301 102 544 347 642 646 120 369 16 774 -266 1043 -46 43 -108 95 -139 115 -66 44 -170 97 -189 97 -8 0 -18 4 -24 9 -18 17 -151 50 -252 62 -290 35 -599 -81 -815 -306 -49 -52 -167 -212 -167 -229 0 -15 -67 -101 -101 -128 -146 -117 -361 -72 -444 93 -21 41 -25 63 -25 138 0 82 3 95 33 153 191 366 554 668 942 784 182 54 209 57 470 58 211 1 262 -2 330 -18 174 -41 358 -109 456 -168 25 -15 49 -28 53 -28 10 0 150 -96 211 -144 79 -64 235 -225 296 -306 96 -129 211 -336 284 -510 54 -129 118 -251 154 -291 60 -68 131 -55 167 31 50 117 54 140 54 303 0 161 -8 218 -51 365 -35 118 -146 338 -221 433 -15 20 -28 40 -28 44 0 18 -123 160 -239 276 -246 244 -487 397 -811 511 -100 35 -117 39 -275 71 -222 45 -461 59 -635 36z"/>
        <path d="M8950 13204 c-47 -8 -125 -22 -175 -30 -152 -26 -234 -53 -297 -98 -21 -15 -28 -28 -28 -52 0 -55 80 -106 230 -147 150 -40 144 -39 335 -66 77 -11 178 -34 220 -51 85 -35 147 -66 206 -105 74 -50 206 -185 236 -242 10 -19 27 -51 37 -71 10 -21 23 -50 27 -67 5 -16 15 -55 24 -85 15 -49 16 -119 10 -665 -3 -335 -10 -774 -15 -975 -5 -201 -12 -783 -16 -1295 -7 -1023 -5 -984 -70 -1121 -73 -152 -218 -286 -373 -345 -120 -45 -177 -48 -1281 -58 -575 -6 -1394 -16 -1820 -22 -900 -14 -805 0 -940 -139 -395 -407 -687 -702 -750 -757 -41 -36 -118 -105 -170 -153 -52 -48 -153 -140 -225 -206 -71 -65 -135 -123 -141 -129 -18 -17 -186 -169 -230 -208 -50 -45 -98 -50 -132 -14 -20 22 -22 33 -22 163 0 76 5 254 10 394 5 140 10 399 11 575 3 308 2 322 -19 367 -31 69 -93 131 -160 161 l-58 26 -544 6 c-528 6 -607 11 -698 41 -38 13 -59 23 -147 71 -12 7 -54 45 -93 84 -81 81 -145 196 -167 299 -21 98 -22 3694 -1 3823 32 195 160 367 338 456 136 67 171 70 718 71 591 1 660 6 871 71 179 55 170 110 -26 162 -122 32 -283 62 -395 73 -36 3 -81 10 -101 15 -20 5 -74 13 -120 18 -46 5 -124 14 -174 20 -49 6 -151 18 -225 26 -74 8 -177 20 -227 27 -174 22 -404 -18 -573 -99 -216 -103 -395 -282 -499 -498 -45 -94 -48 -100 -70 -175 -40 -139 -50 -201 -61 -380 -24 -422 -67 -3033 -57 -3465 5 -224 14 -280 61 -418 25 -75 80 -186 120 -246 20 -29 36 -55 36 -58 0 -8 99 -120 150 -171 121 -120 290 -222 467 -281 165 -56 230 -62 642 -64 291 -1 376 -4 386 -14 11 -10 12 -119 8 -561 -6 -504 -5 -553 11 -608 54 -181 139 -306 265 -392 156 -106 311 -143 488 -117 143 21 203 44 311 124 52 38 969 955 1426 1426 l116 120 213 5 c116 3 527 0 912 -7 385 -7 1103 -12 1595 -12 l895 0 105 23 c151 35 169 40 231 69 31 15 59 27 62 27 16 0 169 98 241 155 224 176 372 405 453 702 32 120 40 300 36 873 -9 1582 -24 2996 -34 3085 -33 319 -147 566 -359 775 -180 178 -340 265 -605 331 -77 19 -305 20 -405 3z"/>
        <path d="M5734 10441 c-79 -36 -115 -113 -97 -209 24 -125 49 -171 143 -262 136 -131 181 -225 181 -376 0 -120 -38 -204 -127 -283 -55 -49 -123 -81 -169 -81 -78 0 -221 118 -275 227 -32 62 -35 76 -35 158 0 74 4 97 22 132 35 65 86 108 156 131 59 19 62 22 79 69 46 130 -7 236 -147 289 -74 28 -231 26 -305 -5 -75 -31 -180 -111 -228 -174 -101 -132 -162 -318 -162 -495 0 -304 136 -558 389 -726 73 -49 199 -104 271 -119 77 -16 280 -20 340 -7 130 28 321 116 444 204 151 108 272 282 328 475 32 110 32 339 0 460 -77 284 -285 502 -564 592 -79 25 -189 25 -244 0z"/>
    </g>
</svg>
