<svg xmlns="http://www.w3.org/2000/svg" xmlns:xlink="http://www.w3.org/1999/xlink" viewBox="0 0 100 100" fill="white">
	<path d="M 55.583 58.354 C 53.29 60.085 50.621 61 47.865 61 c -4.83 0 -9.097 -2.801 -11.62 -7.055 h 10.912 c 1.657 0 3 -1.343 3 -3 s -1.343 -3 -3 -3 H 34.091 c -0.157 -0.956 -0.248 -1.938 -0.248 -2.945 c 0 -1.007 0.092 -1.989 0.248 -2.945 h 13.066 c 1.657 0 3 -1.343 3 -3 s -1.343 -3 -3 -3 H 36.244 C 38.767 31.802 43.035 29 47.865 29 c 2.756 0 5.425 0.915 7.718 2.646 c 1.32 0.996 3.203 0.735 4.202 -0.587 c 0.998 -1.323 0.735 -3.204 -0.587 -4.202 C 55.855 24.334 51.936 23 47.865 23 c -8.142 0 -15.16 5.371 -18.286 13.055 h -4.97 c -1.657 0 -3 1.343 -3 3 s 1.343 3 3 3 h 3.418 c -0.118 0.964 -0.185 1.946 -0.185 2.945 c 0 0.999 0.067 1.981 0.185 2.945 H 24.61 c -1.657 0 -3 1.343 -3 3 s 1.343 3 3 3 h 4.97 C 32.706 61.629 39.723 67 47.865 67 c 4.071 0 7.989 -1.334 11.333 -3.856 c 1.322 -0.998 1.585 -2.879 0.587 -4.202 C 58.787 57.619 56.904 57.356 55.583 58.354 z" />
	<path d="M 45 0 C 20.187 0 0 20.187 0 45 c 0 24.813 20.187 45 45 45 c 24.813 0 45 -20.187 45 -45 C 90 20.187 69.813 0 45 0 z M 45 84 C 23.495 84 6 66.505 6 45 S 23.495 6 45 6 s 39 17.495 39 39 S 66.505 84 45 84 z" />
</svg>