<?xml version="1.0" encoding="iso-8859-1"?>
<!DOCTYPE svg PUBLIC "-//W3C//DTD SVG 1.1//EN" "http://www.w3.org/Graphics/SVG/1.1/DTD/svg11.dtd">
<svg version="1.1" xmlns="http://www.w3.org/2000/svg" xmlns:xlink="http://www.w3.org/1999/xlink" fill="white" viewBox="0 0 1000 1000" style="enable-background:new 0 0 297 297;" xml:space="preserve">
	<path d="M691.7,343.6C691.7,240,605.9,156,500,156s-191.7,84-191.7,187.7c0,103.6,85.8,187.7,191.7,187.7C605.9,531.3,691.7,447.3,691.7,343.6z M350.9,343.6c0-80.6,66.8-146,149.1-146s149.1,65.3,149.1,146c0,80.6-66.8,146-149.1,146S350.9,424.2,350.9,343.6z M840.9,343.6C840.9,159.4,688.3,10,500,10c-188.3,0-340.9,149.4-340.9,333.6c0,184.3,340.9,583.8,340.9,583.8S840.9,527.9,840.9,343.6z M500,51.7c164.7,0,298.3,130.7,298.3,291.9c0,161.2-298.3,521.3-298.3,521.3S201.7,504.8,201.7,343.6C201.7,182.4,335.3,51.7,500,51.7z" />
</svg>