<?xml version="1.0"?>
<!DOCTYPE svg PUBLIC '-//W3C//DTD SVG 1.1//EN' 'http://www.w3.org/Graphics/SVG/1.1/DTD/svg11.dtd'>
<svg version="1.1" viewBox="0 0 512 512" fill="#fff" xml:space="preserve" xmlns="http://www.w3.org/2000/svg" xmlns:xlink="http://www.w3.org/1999/xlink">
	<g>
		<path d="M258,57.7c-0.6-0.1-1.2-0.2-1.9-0.2l-2,0.2c-77.7,4.9-139,69.4-139,148.2c0,38.4,14.4,73.3,38.3,99.7l14.9,15.6   c22.4,24.7,64.6,75,85.8,128.2c0.8,1.7,1.4,3.4,1.9,5.1l2-5.4c21.2-53,63.3-103.3,85.7-127.9l14.9-15.6   c23.9-26.3,38.4-61.3,38.4-99.7C397,127.1,335.5,62.5,258,57.7z M254.5,297.6c-47.1,0-85.2-38.2-85.2-85.2 c0-47.1,38.2-85.2,85.2-85.2c47.1,0,85.2,38.2,85.2,85.2C339.7,259.4,301.6,297.6,254.5,297.6z" />
	</g>
</svg>