<svg xmlns="http://www.w3.org/2000/svg" fill="black" viewBox="0 0 512 512">
	<path d="M449.3,249.3H436v173.1c0,11.6-7.7,20.1-18.4,20.1l-161.3,0.1c-0.1,0-0.2,0.1-0.3,0.1c-0.1,0-0.2-0.1-0.3-0.1  l-159,0.1l0,0c-11.2,0-20.7-9.2-20.7-20.1V249.3H62.7c-3.7,0-6.7-3-6.7-6.7V182c0-10.5,9.2-19.3,20-19.3h68  c-17.6-11.4-31.5-29.8-31.5-53.3c0-21.3,10.1-30.9,18.6-35.1c9.7-4.9,20.7-5,27.7-4.9c13.2,0,57.2,6.6,100.4,85.9  c43.2-79.1,87.1-85.9,99.9-85.9c7-0.1,18.3,0,28,4.9c8.5,4.3,18.6,13.8,18.6,35.1c0,23.5-13.9,41.9-31.5,53.3h64.9  c10.6,0,16.9,6.4,16.9,17.2v62.8C456,246.4,453,249.3,449.3,249.3z M262.7,429.2l154.9-0.1c4.8,0,5.1-5.6,5.1-6.7V249.3h-160V429.2z   M89.3,422.6c0,3.5,3.5,6.7,7.4,6.7l152.6-0.1V249.3h-160V422.6z M76,176c-3.5,0-6.7,2.9-6.7,6v54h13.3h166.7v-60H76z M159.1,82.7  c-6,0.1-15.2,0-22.1,3.5c-7.6,3.8-11.3,11.4-11.3,23.2c0,35,39.1,53.3,60,53.3H248C207.1,86.9,167,82.7,159.1,82.7z M392.4,109.4  c0-11.8-3.7-19.4-11.3-23.2c-6.9-3.5-15.6-3.4-21.7-3.5c-8.2,0-48.3,4.2-89.2,80h62.3C353.4,162.7,392.4,144.4,392.4,109.4z   M442.7,179.9c0-3.8-0.7-3.9-3.6-3.9H262.7v60h166.7h13.3V179.9z" />
</svg>