<?xml version="1.0" encoding="utf-8"?>
<svg version="1.1" xmlns="http://www.w3.org/2000/svg" xmlns:xlink="http://www.w3.org/1999/xlink" viewBox="0 0 515 515" xml:space="preserve">
	<g>
		<path d="M345.6,230.4c-35.3,0-64-28.7-64-64s28.7-64,64-64s64,28.7,64,64S380.9,230.4,345.6,230.4z M345.6,128
		c-21.2,0-38.4,17.2-38.4,38.4s17.2,38.4,38.4,38.4c21.2,0,38.4-17.2,38.4-38.4S366.8,128,345.6,128z" />
		<path d="M12.8,512c-3.3,0-6.6-1.3-9.1-3.7c-3.5-3.5-4.7-8.7-3-13.4c39.4-108.3,80.8-163.2,123.1-163.2c13.9,0,27,6,38.8,17.8
		c18.6,18.6,19.3,37.2,16.6,49.5c-8.5,38.6-63.1,76.4-162,112.4L12.8,512L12.8,512z M123.9,357.2c-12.7,0-27.6,11.1-43.1,32.1
		C65.5,409.9,50.1,439.4,35,477c34.2-13.7,61.6-27.7,81.9-41.6c27.3-18.8,35.4-33.3,37.4-42.1c2-8.8-1.2-17.3-9.7-25.8
		C137.7,360.5,130.9,357.2,123.9,357.2L123.9,357.2z" />
		<path d="M499.2,0c-66.4,0-125.6,11.3-176,33.5c-41.5,18.3-77,44-105.6,76.4c-5.3,6-10.3,12.2-14.8,18.3
		c-22.1,1.5-44.6,10.2-67.2,26.1c-19.1,13.4-38.2,32-57,55.2c-31.5,39-50.8,77.5-51.7,79.1c-2.8,5.6-1.1,12.4,3.9,16.1
		c2.2,1.6,4.9,2.4,7.5,2.4c3.3,0,6.5-1.2,9-3.7c0.1-0.1,12.4-12.2,33.2-24c17.2-9.7,43.7-21.2,75.8-23.2
		c8.1,20.8,31.3,45.6,42.5,56.7s36,34.3,56.7,42.5c-2,32.1-13.5,58.6-23.2,75.8c-11.8,20.9-23.8,33.1-23.9,33.2
		c-4.4,4.4-5,11.4-1.3,16.5c2.5,3.4,6.4,5.3,10.4,5.3l5.7-1.4c1.6-0.8,40.1-20.2,79.1-51.6c23.2-18.7,41.8-37.9,55.2-57
		c15.9-22.6,24.6-45.1,26.1-67.2c6.1-4.6,12.2-9.5,18.3-14.8c32.4-28.6,58.1-64.1,76.4-105.6c22.2-50.3,33.5-109.5,33.5-176V0
		L499.2,0L499.2,0z M79.6,251.1c24.4-35.4,61.7-79.3,103.7-93.1c-16.6,29.1-25.2,55.8-28.3,72.8C125.3,232.6,99.7,241.2,79.6,251.1z
		 M261,432.4c9.9-20.2,18.5-45.7,20.3-75.4c16.9-3.1,43.7-11.7,72.8-28.3C340.2,370.7,296.3,408,261,432.4L261,432.4z M385.1,275.2
		c-53.2,47-108.4,57.6-116.3,57.6c0,0-5.3-0.1-19.4-10.1c-9.8-6.9-21.3-16.8-32.3-27.8c-11-10.9-20.8-22.4-27.8-32.3
		c-10-14.1-10.1-19.4-10.1-19.4c0-7.9,10.6-63.1,57.6-116.3c56.2-63.7,142.2-98.5,249.4-101.1C483.7,133,448.9,219,385.1,275.2
		L385.1,275.2z" />
	</g>
</svg>