<svg xmlns="http://www.w3.org/2000/svg" x="0px" y="0px" viewBox="-200 -200 1400 1400" fill="#fff">
	<path d="M377.5,130.4c135.1,0,245,110.5,245,246.4c0,51.2-15.7,100.4-45.4,142.4L553,553.3l-33.9,24.2c-41.7,29.9-90.7,45.7-141.6,45.7c-135.1,0-245-110.5-245-246.4C132.5,240.9,242.4,130.4,377.5,130.4L377.5,130.4z M377.5,7.2C174.5,7.2,10,172.7,10,376.8s164.5,369.6,367.5,369.6c79.3,0,152.6-25.5,212.6-68.5l295.1,296.8c12,12.1,27.7,18.1,43.4,18.1s31.4-6,43.4-18.1c24-24.1,24-63.2,0-87.3L676.9,590.6c42.7-60.4,68.1-134.1,68.1-213.8C745,172.7,580.5,7.2,377.5,7.2L377.5,7.2L377.5,7.2z" />
</svg>