<svg xmlns="http://www.w3.org/2000/svg" fill="var(--buttonText)" viewBox="0 0 32 32">
    <path class="unmute" d="m16,19.531035c2.333083,0 4.20236,-1.892635 4.20236,-4.237242l0.014055,-8.474486c0,-2.344608 -1.883332,-4.237242 -4.216415,-4.237242s-4.216415,1.892635 -4.216415,4.237242l0,8.474486c0,2.344608 1.883332,4.237242 4.216415,4.237242zm7.448999,-4.237242c0,4.237242 -3.569897,7.203312 -7.448999,7.203312s-7.448999,-2.96607 -7.448999,-7.203312l-2.389302,0c0,4.816332 3.822883,8.799341 8.432829,9.491424l0,4.632719l2.810943,0l0,-4.632719c4.609947,-0.677959 8.432829,-4.660967 8.432829,-9.491424l-2.389302,0z"/>
    <path class="mute" d="m25.833609,15.299436l-2.388162,0c0,1.036835 -0.224768,2.003613 -0.604064,2.872312l1.727905,1.723387c0.786689,-1.373105 1.264321,-2.928357 1.264321,-4.595699zm-5.647301,0.238192c0,-0.084068 0.028096,-0.154124 0.028096,-0.238192l0,-8.406767c0,-2.325872 -1.882434,-4.203383 -4.214403,-4.203383s-4.214403,1.877511 -4.214403,4.203383l0,0.252203l8.400711,8.392755zm-15.04542,-11.447214l-1.784097,1.779432l8.442855,8.420778l0,1.008812c0,2.325872 1.868385,4.203383 4.200355,4.203383c0.309056,0 0.618112,-0.042034 0.913121,-0.11209l2.33197,2.325872c-0.997409,0.462372 -2.107202,0.728586 -3.245091,0.728586c-3.877251,0 -7.445446,-2.942368 -7.445446,-7.145752l-2.388162,0c0,4.777846 3.821059,8.729026 8.428807,9.415579l0,4.595699l2.809602,0l0,-4.595699c1.278369,-0.182147 2.486498,-0.630507 3.568195,-1.261015l5.886117,5.856714l1.784097,-1.779432l-23.502323,-23.440868z"/>
</svg>